<?xml version="1.0" encoding="UTF-8"?>
<svg id="Calque_2" data-name="Calque 2" xmlns="http://www.w3.org/2000/svg" viewBox="0 0 465.14 2697.57">
  <defs>
    <style>
      .cls-1 {
        fill: none;
        stroke: #fff;
        stroke-miterlimit: 10;
        stroke-width: 17px;
      }
    </style>
  </defs>
  <g id="Calque_2-2" data-name="Calque 2">
    <path class="cls-1" d="m0,174.79h39.18c7.46,0,14.58-3.06,19.73-8.45l18.18-19.09c5.14-5.4,12.27-8.45,19.73-8.45h20.61c7.14,0,14-2.8,19.09-7.81l16.67-16.38c5.09-5,11.95-7.81,19.09-7.81h16.29c6.28,0,12.36-2.17,17.23-6.14l12.96-10.58c4.86-3.97,10.95-6.14,17.23-6.14h10.77c6.34,0,12.48-2.21,17.36-6.25l14.6-12.08c4.88-4.04,11.02-6.25,17.36-6.25h9c7,0,13.73-2.69,18.8-7.53l8.79-8.38c5.07-4.83,11.8-7.53,18.8-7.53h5.13c6.26,0,12.33-2.16,17.19-6.11l18.69-15.21c4.86-3.95,10.93-6.11,17.19-6.11h55.46"/>
    <path class="cls-1" d="m0,250.98h39.18c7.46,0,14.58-3.06,19.73-8.45l18.18-19.09c5.14-5.4,12.27-8.45,19.73-8.45h20.61c7.14,0,14-2.8,19.09-7.81l16.67-16.38c5.09-5,11.95-7.81,19.09-7.81h16.29c6.28,0,12.36-2.17,17.23-6.14l12.96-10.58c4.86-3.97,10.95-6.14,17.23-6.14h10.77c6.34,0,12.48-2.21,17.36-6.25l14.6-12.08c4.88-4.04,11.02-6.25,17.36-6.25h9c7,0,13.73-2.69,18.8-7.53l8.79-8.38c5.07-4.83,11.8-7.53,18.8-7.53h5.13c6.26,0,12.33-2.16,17.19-6.11l18.69-15.21c4.86-3.95,10.93-6.11,17.19-6.11h55.46"/>
    <path class="cls-1" d="m0,327.17h39.18c7.46,0,14.58-3.06,19.73-8.45l18.18-19.09c5.14-5.4,12.27-8.45,19.73-8.45h20.61c7.14,0,14-2.8,19.09-7.81l16.67-16.38c5.09-5,11.95-7.81,19.09-7.81h16.29c6.28,0,12.36-2.17,17.23-6.14l12.96-10.58c4.86-3.97,10.95-6.14,17.23-6.14h10.77c6.34,0,12.48-2.21,17.36-6.25l14.6-12.08c4.88-4.04,11.02-6.25,17.36-6.25h9c7,0,13.73-2.69,18.8-7.53l8.79-8.38c5.07-4.83,11.8-7.53,18.8-7.53h5.13c6.26,0,12.33-2.16,17.19-6.11l18.69-15.21c4.86-3.95,10.93-6.11,17.19-6.11h55.46"/>
    <path class="cls-1" d="m0,403.36h39.18c7.46,0,14.58-3.06,19.73-8.45l18.18-19.09c5.14-5.4,12.27-8.45,19.73-8.45h20.61c7.14,0,14-2.8,19.09-7.81l16.67-16.38c5.09-5,11.95-7.81,19.09-7.81h16.29c6.28,0,12.36-2.17,17.23-6.14l12.96-10.58c4.86-3.97,10.95-6.14,17.23-6.14h10.77c6.34,0,12.48-2.21,17.36-6.25l14.6-12.08c4.88-4.04,11.02-6.25,17.36-6.25h9c7,0,13.73-2.69,18.8-7.53l8.79-8.38c5.07-4.83,11.8-7.53,18.8-7.53h5.13c6.26,0,12.33-2.16,17.19-6.11l18.69-15.21c4.86-3.95,10.93-6.11,17.19-6.11h55.46"/>
    <path class="cls-1" d="m0,479.55h39.18c7.46,0,14.58-3.06,19.73-8.45l18.18-19.09c5.14-5.4,12.27-8.45,19.73-8.45h20.61c7.14,0,14-2.8,19.09-7.81l16.67-16.38c5.09-5,11.95-7.81,19.09-7.81h16.29c6.28,0,12.36-2.17,17.23-6.14l12.96-10.58c4.86-3.97,10.95-6.14,17.23-6.14h10.77c6.34,0,12.48-2.21,17.36-6.25l14.6-12.08c4.88-4.04,11.02-6.25,17.36-6.25h9c7,0,13.73-2.69,18.8-7.53l8.79-8.38c5.07-4.83,11.8-7.53,18.8-7.53h5.13c6.26,0,12.33-2.16,17.19-6.11l18.69-15.21c4.86-3.95,10.93-6.11,17.19-6.11h55.46"/>
    <path class="cls-1" d="m0,555.74h39.18c7.46,0,14.58-3.06,19.73-8.45l18.18-19.09c5.14-5.4,12.27-8.45,19.73-8.45h20.61c7.14,0,14-2.8,19.09-7.81l16.67-16.38c5.09-5,11.95-7.81,19.09-7.81h16.29c6.28,0,12.36-2.17,17.23-6.14l12.96-10.58c4.86-3.97,10.95-6.14,17.23-6.14h10.77c6.34,0,12.48-2.21,17.36-6.25l14.6-12.08c4.88-4.04,11.02-6.25,17.36-6.25h9c7,0,13.73-2.69,18.8-7.53l8.79-8.38c5.07-4.83,11.8-7.53,18.8-7.53h5.13c6.26,0,12.33-2.16,17.19-6.11l18.69-15.21c4.86-3.95,10.93-6.11,17.19-6.11h55.46"/>
    <path class="cls-1" d="m0,631.93h39.18c7.46,0,14.58-3.06,19.73-8.45l18.18-19.09c5.14-5.4,12.27-8.45,19.73-8.45h20.61c7.14,0,14-2.8,19.09-7.81l16.67-16.38c5.09-5,11.95-7.81,19.09-7.81h16.29c6.28,0,12.36-2.17,17.23-6.14l12.96-10.58c4.86-3.97,10.95-6.14,17.23-6.14h10.77c6.34,0,12.48-2.21,17.36-6.25l14.6-12.08c4.88-4.04,11.02-6.25,17.36-6.25h9c7,0,13.73-2.69,18.8-7.53l8.79-8.38c5.07-4.83,11.8-7.53,18.8-7.53h5.13c6.26,0,12.33-2.16,17.19-6.11l18.69-15.21c4.86-3.95,10.93-6.11,17.19-6.11h55.46"/>
    <path class="cls-1" d="m0,708.12h39.18c7.46,0,14.58-3.06,19.73-8.45l18.18-19.09c5.14-5.4,12.27-8.45,19.73-8.45h20.61c7.14,0,14-2.8,19.09-7.81l16.67-16.38c5.09-5,11.95-7.81,19.09-7.81h16.29c6.28,0,12.36-2.17,17.23-6.14l12.96-10.58c4.86-3.97,10.95-6.14,17.23-6.14h10.77c6.34,0,12.48-2.21,17.36-6.25l14.6-12.08c4.88-4.04,11.02-6.25,17.36-6.25h9c7,0,13.73-2.69,18.8-7.53l8.79-8.38c5.07-4.83,11.8-7.53,18.8-7.53h5.13c6.26,0,12.33-2.16,17.19-6.11l18.69-15.21c4.86-3.95,10.93-6.11,17.19-6.11h55.46"/>
    <path class="cls-1" d="m0,784.31h39.18c7.46,0,14.58-3.06,19.73-8.45l18.18-19.09c5.14-5.4,12.27-8.45,19.73-8.45h20.61c7.14,0,14-2.8,19.09-7.81l16.67-16.38c5.09-5,11.95-7.81,19.09-7.81h16.29c6.28,0,12.36-2.17,17.23-6.14l12.96-10.58c4.86-3.97,10.95-6.14,17.23-6.14h10.77c6.34,0,12.48-2.21,17.36-6.25l14.6-12.08c4.88-4.04,11.02-6.25,17.36-6.25h9c7,0,13.73-2.69,18.8-7.53l8.79-8.38c5.07-4.83,11.8-7.53,18.8-7.53h5.13c6.26,0,12.33-2.16,17.19-6.11l18.69-15.21c4.86-3.95,10.93-6.11,17.19-6.11h55.46"/>
    <path class="cls-1" d="m0,860.5h39.18c7.46,0,14.58-3.06,19.73-8.45l18.18-19.09c5.14-5.4,12.27-8.45,19.73-8.45h20.61c7.14,0,14-2.8,19.09-7.81l16.67-16.38c5.09-5,11.95-7.81,19.09-7.81h16.29c6.28,0,12.36-2.17,17.23-6.14l12.96-10.58c4.86-3.97,10.95-6.14,17.23-6.14h10.77c6.34,0,12.48-2.21,17.36-6.25l14.6-12.08c4.88-4.04,11.02-6.25,17.36-6.25h9c7,0,13.73-2.69,18.8-7.53l8.79-8.38c5.07-4.83,11.8-7.53,18.8-7.53h5.13c6.26,0,12.33-2.16,17.19-6.11l18.69-15.21c4.86-3.95,10.93-6.11,17.19-6.11h55.46"/>
    <path class="cls-1" d="m0,936.69h39.18c7.46,0,14.58-3.06,19.73-8.45l18.18-19.09c5.14-5.4,12.27-8.45,19.73-8.45h20.61c7.14,0,14-2.8,19.09-7.81l16.67-16.38c5.09-5,11.95-7.81,19.09-7.81h16.29c6.28,0,12.36-2.17,17.23-6.14l12.96-10.58c4.86-3.97,10.95-6.14,17.23-6.14h10.77c6.34,0,12.48-2.21,17.36-6.25l14.6-12.08c4.88-4.04,11.02-6.25,17.36-6.25h9c7,0,13.73-2.69,18.8-7.53l8.79-8.38c5.07-4.83,11.8-7.53,18.8-7.53h5.13c6.26,0,12.33-2.16,17.19-6.11l18.69-15.21c4.86-3.95,10.93-6.11,17.19-6.11h55.46"/>
    <path class="cls-1" d="m0,1012.88h39.18c7.46,0,14.58-3.06,19.73-8.45l18.18-19.09c5.14-5.4,12.27-8.45,19.73-8.45h20.61c7.14,0,14-2.8,19.09-7.81l16.67-16.38c5.09-5,11.95-7.81,19.09-7.81h16.29c6.28,0,12.36-2.17,17.23-6.14l12.96-10.58c4.86-3.97,10.95-6.14,17.23-6.14h10.77c6.34,0,12.48-2.21,17.36-6.25l14.6-12.08c4.88-4.04,11.02-6.25,17.36-6.25h9c7,0,13.73-2.69,18.8-7.53l8.79-8.38c5.07-4.83,11.8-7.53,18.8-7.53h5.13c6.26,0,12.33-2.16,17.19-6.11l18.69-15.21c4.86-3.95,10.93-6.11,17.19-6.11h55.46"/>
    <path class="cls-1" d="m0,1089.07h39.18c7.46,0,14.58-3.06,19.73-8.45l18.18-19.09c5.14-5.4,12.27-8.45,19.73-8.45h20.61c7.14,0,14-2.8,19.09-7.81l16.67-16.38c5.09-5,11.95-7.81,19.09-7.81h16.29c6.28,0,12.36-2.17,17.23-6.14l12.96-10.58c4.86-3.97,10.95-6.14,17.23-6.14h10.77c6.34,0,12.48-2.21,17.36-6.25l14.6-12.08c4.88-4.04,11.02-6.25,17.36-6.25h9c7,0,13.73-2.69,18.8-7.53l8.79-8.38c5.07-4.83,11.8-7.53,18.8-7.53h5.13c6.26,0,12.33-2.16,17.19-6.11l18.69-15.21c4.86-3.95,10.93-6.11,17.19-6.11h55.46"/>
    <path class="cls-1" d="m0,1165.26h39.18c7.46,0,14.58-3.06,19.73-8.45l18.18-19.09c5.14-5.4,12.27-8.45,19.73-8.45h20.61c7.14,0,14-2.8,19.09-7.81l16.67-16.38c5.09-5,11.95-7.81,19.09-7.81h16.29c6.28,0,12.36-2.17,17.23-6.14l12.96-10.58c4.86-3.97,10.95-6.14,17.23-6.14h10.77c6.34,0,12.48-2.21,17.36-6.25l14.6-12.08c4.88-4.04,11.02-6.25,17.36-6.25h9c7,0,13.73-2.69,18.8-7.53l8.79-8.38c5.07-4.83,11.8-7.53,18.8-7.53h5.13c6.26,0,12.33-2.16,17.19-6.11l18.69-15.21c4.86-3.95,10.93-6.11,17.19-6.11h55.46"/>
    <path class="cls-1" d="m0,1241.45h39.18c7.46,0,14.58-3.06,19.73-8.45l18.18-19.09c5.14-5.4,12.27-8.45,19.73-8.45h20.61c7.14,0,14-2.8,19.09-7.81l16.67-16.38c5.09-5,11.95-7.81,19.09-7.81h16.29c6.28,0,12.36-2.17,17.23-6.14l12.96-10.58c4.86-3.97,10.95-6.14,17.23-6.14h10.77c6.34,0,12.48-2.21,17.36-6.25l14.6-12.08c4.88-4.04,11.02-6.25,17.36-6.25h9c7,0,13.73-2.69,18.8-7.53l8.79-8.38c5.07-4.83,11.8-7.53,18.8-7.53h5.13c6.26,0,12.33-2.16,17.19-6.11l18.69-15.21c4.86-3.95,10.93-6.11,17.19-6.11h55.46"/>
    <path class="cls-1" d="m0,1317.64h39.18c7.46,0,14.58-3.06,19.73-8.45l18.18-19.09c5.14-5.4,12.27-8.45,19.73-8.45h20.61c7.14,0,14-2.8,19.09-7.81l16.67-16.38c5.09-5,11.95-7.81,19.09-7.81h16.29c6.28,0,12.36-2.17,17.23-6.14l12.96-10.58c4.86-3.97,10.95-6.14,17.23-6.14h10.77c6.34,0,12.48-2.21,17.36-6.25l14.6-12.08c4.88-4.04,11.02-6.25,17.36-6.25h9c7,0,13.73-2.69,18.8-7.53l8.79-8.38c5.07-4.83,11.8-7.53,18.8-7.53h5.13c6.26,0,12.33-2.16,17.19-6.11l18.69-15.21c4.86-3.95,10.93-6.11,17.19-6.11h55.46"/>
    <path class="cls-1" d="m0,1393.83h39.18c7.46,0,14.58-3.06,19.73-8.45l18.18-19.09c5.14-5.4,12.27-8.45,19.73-8.45h20.61c7.14,0,14-2.8,19.09-7.81l16.67-16.38c5.09-5,11.95-7.81,19.09-7.81h16.29c6.28,0,12.36-2.17,17.23-6.14l12.96-10.58c4.86-3.97,10.95-6.14,17.23-6.14h10.77c6.34,0,12.48-2.21,17.36-6.25l14.6-12.08c4.88-4.04,11.02-6.25,17.36-6.25h9c7,0,13.73-2.69,18.8-7.53l8.79-8.38c5.07-4.83,11.8-7.53,18.8-7.53h5.13c6.26,0,12.33-2.16,17.19-6.11l18.69-15.21c4.86-3.95,10.93-6.11,17.19-6.11h55.46"/>
    <path class="cls-1" d="m0,1470.02h39.18c7.46,0,14.58-3.06,19.73-8.45l18.18-19.09c5.14-5.4,12.27-8.45,19.73-8.45h20.61c7.14,0,14-2.8,19.09-7.81l16.67-16.38c5.09-5,11.95-7.81,19.09-7.81h16.29c6.28,0,12.36-2.17,17.23-6.14l12.96-10.58c4.86-3.97,10.95-6.14,17.23-6.14h10.77c6.34,0,12.48-2.21,17.36-6.25l14.6-12.08c4.88-4.04,11.02-6.25,17.36-6.25h9c7,0,13.73-2.69,18.8-7.53l8.79-8.38c5.07-4.83,11.8-7.53,18.8-7.53h5.13c6.26,0,12.33-2.16,17.19-6.11l18.69-15.21c4.86-3.95,10.93-6.11,17.19-6.11h55.46"/>
    <path class="cls-1" d="m0,1546.21h39.18c7.46,0,14.58-3.06,19.73-8.45l18.18-19.09c5.14-5.4,12.27-8.45,19.73-8.45h20.61c7.14,0,14-2.8,19.09-7.81l16.67-16.38c5.09-5,11.95-7.81,19.09-7.81h16.29c6.28,0,12.36-2.17,17.23-6.14l12.96-10.58c4.86-3.97,10.95-6.14,17.23-6.14h10.77c6.34,0,12.48-2.21,17.36-6.25l14.6-12.08c4.88-4.04,11.02-6.25,17.36-6.25h9c7,0,13.73-2.69,18.8-7.53l8.79-8.38c5.07-4.83,11.8-7.53,18.8-7.53h5.13c6.26,0,12.33-2.16,17.19-6.11l18.69-15.21c4.86-3.95,10.93-6.11,17.19-6.11h55.46"/>
    <path class="cls-1" d="m0,1622.4h39.18c7.46,0,14.58-3.06,19.73-8.45l18.18-19.09c5.14-5.4,12.27-8.45,19.73-8.45h20.61c7.14,0,14-2.8,19.09-7.81l16.67-16.38c5.09-5,11.95-7.81,19.09-7.81h16.29c6.28,0,12.36-2.17,17.23-6.14l12.96-10.58c4.86-3.97,10.95-6.14,17.23-6.14h10.77c6.34,0,12.48-2.21,17.36-6.25l14.6-12.08c4.88-4.04,11.02-6.25,17.36-6.25h9c7,0,13.73-2.69,18.8-7.53l8.79-8.38c5.07-4.83,11.8-7.53,18.8-7.53h5.13c6.26,0,12.33-2.16,17.19-6.11l18.69-15.21c4.86-3.95,10.93-6.11,17.19-6.11h55.46"/>
    <path class="cls-1" d="m0,1698.6h39.18c7.46,0,14.58-3.06,19.73-8.45l18.18-19.09c5.14-5.4,12.27-8.45,19.73-8.45h20.61c7.14,0,14-2.8,19.09-7.81l16.67-16.38c5.09-5,11.95-7.81,19.09-7.81h16.29c6.28,0,12.36-2.17,17.23-6.14l12.96-10.58c4.86-3.97,10.95-6.14,17.23-6.14h10.77c6.34,0,12.48-2.21,17.36-6.25l14.6-12.08c4.88-4.04,11.02-6.25,17.36-6.25h9c7,0,13.73-2.69,18.8-7.53l8.79-8.38c5.07-4.83,11.8-7.53,18.8-7.53h5.13c6.26,0,12.33-2.16,17.19-6.11l18.69-15.21c4.86-3.95,10.93-6.11,17.19-6.11h55.46"/>
    <path class="cls-1" d="m0,1774.79h39.18c7.46,0,14.58-3.06,19.73-8.45l18.18-19.09c5.14-5.4,12.27-8.45,19.73-8.45h20.61c7.14,0,14-2.8,19.09-7.81l16.67-16.38c5.09-5,11.95-7.81,19.09-7.81h16.29c6.28,0,12.36-2.17,17.23-6.14l12.96-10.58c4.86-3.97,10.95-6.14,17.23-6.14h10.77c6.34,0,12.48-2.21,17.36-6.25l14.6-12.08c4.88-4.04,11.02-6.25,17.36-6.25h9c7,0,13.73-2.69,18.8-7.53l8.79-8.38c5.07-4.83,11.8-7.53,18.8-7.53h5.13c6.26,0,12.33-2.16,17.19-6.11l18.69-15.21c4.86-3.95,10.93-6.11,17.19-6.11h55.46"/>
    <path class="cls-1" d="m0,1850.98h39.18c7.46,0,14.58-3.06,19.73-8.45l18.18-19.09c5.14-5.4,12.27-8.45,19.73-8.45h20.61c7.14,0,14-2.8,19.09-7.81l16.67-16.38c5.09-5,11.95-7.81,19.09-7.81h16.29c6.28,0,12.36-2.17,17.23-6.14l12.96-10.58c4.86-3.97,10.95-6.14,17.23-6.14h10.77c6.34,0,12.48-2.21,17.36-6.25l14.6-12.08c4.88-4.04,11.02-6.25,17.36-6.25h9c7,0,13.73-2.69,18.8-7.53l8.79-8.38c5.07-4.83,11.8-7.53,18.8-7.53h5.13c6.26,0,12.33-2.16,17.19-6.11l18.69-15.21c4.86-3.95,10.93-6.11,17.19-6.11h55.46"/>
    <path class="cls-1" d="m0,1927.17h39.18c7.46,0,14.58-3.06,19.73-8.45l18.18-19.09c5.14-5.4,12.27-8.45,19.73-8.45h20.61c7.14,0,14-2.8,19.09-7.81l16.67-16.38c5.09-5,11.95-7.81,19.09-7.81h16.29c6.28,0,12.36-2.17,17.23-6.14l12.96-10.58c4.86-3.97,10.95-6.14,17.23-6.14h10.77c6.34,0,12.48-2.21,17.36-6.25l14.6-12.08c4.88-4.04,11.02-6.25,17.36-6.25h9c7,0,13.73-2.69,18.8-7.53l8.79-8.38c5.07-4.83,11.8-7.53,18.8-7.53h5.13c6.26,0,12.33-2.16,17.19-6.11l18.69-15.21c4.86-3.95,10.93-6.11,17.19-6.11h55.46"/>
    <path class="cls-1" d="m0,2003.36h39.18c7.46,0,14.58-3.06,19.73-8.45l18.18-19.09c5.14-5.4,12.27-8.45,19.73-8.45h20.61c7.14,0,14-2.8,19.09-7.81l16.67-16.38c5.09-5,11.95-7.81,19.09-7.81h16.29c6.28,0,12.36-2.17,17.23-6.14l12.96-10.58c4.86-3.97,10.95-6.14,17.23-6.14h10.77c6.34,0,12.48-2.21,17.36-6.25l14.6-12.08c4.88-4.04,11.02-6.25,17.36-6.25h9c7,0,13.73-2.69,18.8-7.53l8.79-8.38c5.07-4.83,11.8-7.53,18.8-7.53h5.13c6.26,0,12.33-2.16,17.19-6.11l18.69-15.21c4.86-3.95,10.93-6.11,17.19-6.11h55.46"/>
    <path class="cls-1" d="m0,2079.55h39.18c7.46,0,14.58-3.06,19.73-8.45l18.18-19.09c5.14-5.4,12.27-8.45,19.73-8.45h20.61c7.14,0,14-2.8,19.09-7.81l16.67-16.38c5.09-5,11.95-7.81,19.09-7.81h16.29c6.28,0,12.36-2.17,17.23-6.14l12.96-10.58c4.86-3.97,10.95-6.14,17.23-6.14h10.77c6.34,0,12.48-2.21,17.36-6.25l14.6-12.08c4.88-4.04,11.02-6.25,17.36-6.25h9c7,0,13.73-2.69,18.8-7.53l8.79-8.38c5.07-4.83,11.8-7.53,18.8-7.53h5.13c6.26,0,12.33-2.16,17.19-6.11l18.69-15.21c4.86-3.95,10.93-6.11,17.19-6.11h55.46"/>
    <path class="cls-1" d="m0,2155.74h39.18c7.46,0,14.58-3.06,19.73-8.45l18.18-19.09c5.14-5.4,12.27-8.45,19.73-8.45h20.61c7.14,0,14-2.8,19.09-7.81l16.67-16.38c5.09-5,11.95-7.81,19.09-7.81h16.29c6.28,0,12.36-2.17,17.23-6.14l12.96-10.58c4.86-3.97,10.95-6.14,17.23-6.14h10.77c6.34,0,12.48-2.21,17.36-6.25l14.6-12.08c4.88-4.04,11.02-6.25,17.36-6.25h9c7,0,13.73-2.69,18.8-7.53l8.79-8.38c5.07-4.83,11.8-7.53,18.8-7.53h5.13c6.26,0,12.33-2.16,17.19-6.11l18.69-15.21c4.86-3.95,10.93-6.11,17.19-6.11h55.46"/>
    <path class="cls-1" d="m0,2231.93h39.18c7.46,0,14.58-3.06,19.73-8.45l18.18-19.09c5.14-5.4,12.27-8.45,19.73-8.45h20.61c7.14,0,14-2.8,19.09-7.81l16.67-16.38c5.09-5,11.95-7.81,19.09-7.81h16.29c6.28,0,12.36-2.17,17.23-6.14l12.96-10.58c4.86-3.97,10.95-6.14,17.23-6.14h10.77c6.34,0,12.48-2.21,17.36-6.25l14.6-12.08c4.88-4.04,11.02-6.25,17.36-6.25h9c7,0,13.73-2.69,18.8-7.53l8.79-8.38c5.07-4.83,11.8-7.53,18.8-7.53h5.13c6.26,0,12.33-2.16,17.19-6.11l18.69-15.21c4.86-3.95,10.93-6.11,17.19-6.11h55.46"/>
    <path class="cls-1" d="m0,2308.12h39.18c7.46,0,14.58-3.06,19.73-8.45l18.18-19.09c5.14-5.4,12.27-8.45,19.73-8.45h20.61c7.14,0,14-2.8,19.09-7.81l16.67-16.38c5.09-5,11.95-7.81,19.09-7.81h16.29c6.28,0,12.36-2.17,17.23-6.14l12.96-10.58c4.86-3.97,10.95-6.14,17.23-6.14h10.77c6.34,0,12.48-2.21,17.36-6.25l14.6-12.08c4.88-4.04,11.02-6.25,17.36-6.25h9c7,0,13.73-2.69,18.8-7.53l8.79-8.38c5.07-4.83,11.8-7.53,18.8-7.53h5.13c6.26,0,12.33-2.16,17.19-6.11l18.69-15.21c4.86-3.95,10.93-6.11,17.19-6.11h55.46"/>
    <path class="cls-1" d="m0,2384.31h39.18c7.46,0,14.58-3.06,19.73-8.45l18.18-19.09c5.14-5.4,12.27-8.45,19.73-8.45h20.61c7.14,0,14-2.8,19.09-7.81l16.67-16.38c5.09-5,11.95-7.81,19.09-7.81h16.29c6.28,0,12.36-2.17,17.23-6.14l12.96-10.58c4.86-3.97,10.95-6.14,17.23-6.14h10.77c6.34,0,12.48-2.21,17.36-6.25l14.6-12.08c4.88-4.04,11.02-6.25,17.36-6.25h9c7,0,13.73-2.69,18.8-7.53l8.79-8.38c5.07-4.83,11.8-7.53,18.8-7.53h5.13c6.26,0,12.33-2.16,17.19-6.11l18.69-15.21c4.86-3.95,10.93-6.11,17.19-6.11h55.46"/>
    <path class="cls-1" d="m0,2460.5h39.18c7.46,0,14.58-3.06,19.73-8.45l18.18-19.09c5.14-5.4,12.27-8.45,19.73-8.45h20.61c7.14,0,14-2.8,19.09-7.81l16.67-16.38c5.09-5,11.95-7.81,19.09-7.81h16.29c6.28,0,12.36-2.17,17.23-6.14l12.96-10.58c4.86-3.97,10.95-6.14,17.23-6.14h10.77c6.34,0,12.48-2.21,17.36-6.25l14.6-12.08c4.88-4.04,11.02-6.25,17.36-6.25h9c7,0,13.73-2.69,18.8-7.53l8.79-8.38c5.07-4.83,11.8-7.53,18.8-7.53h5.13c6.26,0,12.33-2.16,17.19-6.11l18.69-15.21c4.86-3.95,10.93-6.11,17.19-6.11h55.46"/>
    <path class="cls-1" d="m0,2536.69h39.18c7.46,0,14.58-3.06,19.73-8.45l18.18-19.09c5.14-5.4,12.27-8.45,19.73-8.45h20.61c7.14,0,14-2.8,19.09-7.81l16.67-16.38c5.09-5,11.95-7.81,19.09-7.81h16.29c6.28,0,12.36-2.17,17.23-6.14l12.96-10.58c4.86-3.97,10.95-6.14,17.23-6.14h10.77c6.34,0,12.48-2.21,17.36-6.25l14.6-12.08c4.88-4.04,11.02-6.25,17.36-6.25h9c7,0,13.73-2.69,18.8-7.53l8.79-8.38c5.07-4.83,11.8-7.53,18.8-7.53h5.13c6.26,0,12.33-2.16,17.19-6.11l18.69-15.21c4.86-3.95,10.93-6.11,17.19-6.11h55.46"/>
    <path class="cls-1" d="m0,2612.88h39.18c7.46,0,14.58-3.06,19.73-8.45l18.18-19.09c5.14-5.4,12.27-8.45,19.73-8.45h20.61c7.14,0,14-2.8,19.09-7.81l16.67-16.38c5.09-5,11.95-7.81,19.09-7.81h16.29c6.28,0,12.36-2.17,17.23-6.14l12.96-10.58c4.86-3.97,10.95-6.14,17.23-6.14h10.77c6.34,0,12.48-2.21,17.36-6.25l14.6-12.08c4.88-4.04,11.02-6.25,17.36-6.25h9c7,0,13.73-2.69,18.8-7.53l8.79-8.38c5.07-4.83,11.8-7.53,18.8-7.53h5.13c6.26,0,12.33-2.16,17.19-6.11l18.69-15.21c4.86-3.95,10.93-6.11,17.19-6.11h55.46"/>
    <path class="cls-1" d="m0,2689.07h39.18c7.46,0,14.58-3.06,19.73-8.45l18.18-19.09c5.14-5.4,12.27-8.45,19.73-8.45h20.61c7.14,0,14-2.8,19.09-7.81l16.67-16.38c5.09-5,11.95-7.81,19.09-7.81h16.29c6.28,0,12.36-2.17,17.23-6.14l12.96-10.58c4.86-3.97,10.95-6.14,17.23-6.14h10.77c6.34,0,12.48-2.21,17.36-6.25l14.6-12.08c4.88-4.04,11.02-6.25,17.36-6.25h9c7,0,13.73-2.69,18.8-7.53l8.79-8.38c5.07-4.83,11.8-7.53,18.8-7.53h5.13c6.26,0,12.33-2.16,17.19-6.11l18.69-15.21c4.86-3.95,10.93-6.11,17.19-6.11h55.46"/>
  </g>
</svg>